<?xml version="1.0" encoding="UTF-8" standalone="no"?>
<!DOCTYPE svg PUBLIC "-//W3C//DTD SVG 1.1//EN" "http://www.w3.org/Graphics/SVG/1.1/DTD/svg11.dtd">
<svg xmlns="http://www.w3.org/2000/svg" xmlns:xl="http://www.w3.org/1999/xlink" xmlns:dc="http://purl.org/dc/elements/1.1/" version="1.1" viewBox="49.5 90 319.5 180" width="319.5" height="180">
  <defs>
    <clipPath id="artboard_clip_path">
      <path d="M 49.5 90 L 369 90 L 369 270 L 49.5 270 Z"/>
    </clipPath>
  </defs>
  <metadata> Produced by OmniGraffle 7.11.5 
    <dc:date>2021-12-26 04:39:10 +0000</dc:date>
  </metadata>
  <g id="Rabbit_Couchant_(3)" stroke="none" fill-opacity="1" stroke-opacity="1" fill="none" stroke-dasharray="none">
    <title>Rabbit Couchant (3)</title>
    <g id="Rabbit_Couchant_(3): Art" clip-path="url(#artboard_clip_path)">
      <title>Art</title>
      <g id="Group_25">
        <g id="Graphic_137">
          <path d="M 140.68278 97.43427 C 132.11395 102.44374 120.24943 116.94483 112.6034 131.8414 C 106.012 144.62873 103.77092 147.39711 92.56553 156.2296 C 87.68789 160.05261 81.6238 166.1167 76.21885 172.44445 L 72.79132 176.3993 L 73.58229 171.7853 C 74.1096 169.28058 74.76874 165.72122 75.16423 164.00745 C 75.69154 162.03003 75.42788 161.10723 74.505085 161.63455 C 73.45046 162.42552 72.13218 169.01692 70.8139 181.67241 C 70.418415 186.41823 67.38637 193.14146 66.331744 191.69135 C 65.93626 190.90038 65.93626 187.07737 66.46357 183.25435 C 68.17734 171.65348 67.38637 167.9623 65.40895 177.71757 C 64.35432 183.25435 63.82701 190.37307 64.222495 195.6462 C 64.74981 201.97394 64.48615 205.00598 63.16787 206.85158 C 61.32228 209.22448 61.19045 209.22448 59.74034 205.40147 C 58.026576 200.91931 57.63109 183.25435 59.0812 174.68553 C 59.60851 171.38982 59.476685 169.14875 58.685716 169.14875 C 57.23561 169.14875 55.52184 190.63672 56.57647 196.83264 C 56.97195 199.33738 58.158404 205.13781 59.21303 209.61997 C 60.26765 214.10212 60.794965 219.1116 60.39948 220.82535 C 59.87217 223.06643 61.19045 225.83482 65.27712 231.3716 C 70.55024 238.49032 71.34121 239.01763 76.21885 239.01763 C 82.81025 239.01763 91.90639 235.98558 98.10231 231.63526 C 102.05715 228.9987 103.50726 228.6032 106.40748 229.65783 C 108.25307 230.4488 109.83501 231.63526 109.83501 232.2944 C 109.83501 232.95354 112.07609 234.53547 114.84448 235.85375 L 119.72212 238.22666 L 113.65802 239.01763 C 109.17587 239.54494 105.88017 241.12688 101.26618 244.81806 C 97.83865 247.58645 94.80661 250.75033 94.41112 251.93678 C 93.09284 255.3643 97.97048 257.7372 104.95737 257.07807 C 111.28512 256.55076 112.33974 257.07807 109.57135 259.84646 C 108.25307 261.16474 108.51673 261.9557 110.2305 263.66948 C 112.20791 265.6469 114.71265 265.91056 127.36814 265.6469 C 142.92386 265.2514 145.9559 265.1196 178.25378 262.74668 C 196.84154 261.4284 198.81896 261.03292 202.90563 258.00087 C 205.41036 256.02345 207.38779 254.04603 207.38779 253.51872 C 207.38779 252.9914 210.15618 252.20044 213.71553 251.80495 C 217.14306 251.40947 220.96608 250.6185 222.28436 250.223 C 223.8663 249.56387 224.52544 249.95936 224.52544 251.67312 C 224.65726 254.837 226.89834 257.86904 231.11684 260.24195 C 233.62157 261.69206 239.422 261.9557 256.8233 261.69206 C 269.21515 261.56023 282.66162 260.76926 286.8801 260.11012 C 291.75775 259.31915 295.84442 259.45098 297.95367 260.24195 C 307.9726 264.06496 322.73735 260.76926 323.66015 254.57334 C 324.05563 251.80495 324.71477 251.5413 329.9879 251.93678 C 349.10297 253.12323 360.17653 242.84064 362.15395 222.0118 C 362.68126 216.3432 360.9675 210.01545 358.7264 210.01545 C 358.1991 210.01545 357.6718 208.56534 357.6718 206.71975 C 357.6718 202.2376 352.39867 198.9419 347.25737 200.12835 C 343.698 200.91931 343.1707 200.65566 342.51156 197.22813 C 341.98425 195.2507 341.1933 192.08683 340.53414 190.24124 C 339.875 188.39565 338.9522 184.83629 338.4249 182.33156 C 337.5021 177.58574 336.9748 176.13564 333.54725 169.80789 C 332.3608 167.56681 329.85607 162.68917 328.01048 158.86616 C 325.90123 154.64766 321.68273 149.50636 317.20057 145.68335 C 313.1139 142.25582 307.0498 136.9827 303.7541 134.08248 C 296.10808 127.22742 285.95732 121.69064 273.30182 117.34031 C 246.80438 108.50783 203.03746 108.50783 190.25014 117.60397 C 185.63615 120.89967 182.6041 121.82247 181.54948 120.24053 C 181.154 119.58139 181.41765 118.26311 182.0768 117.34031 C 182.73594 116.41752 183.79056 113.25364 184.31787 110.08977 C 185.10884 105.0803 184.97701 104.55299 182.34045 104.55299 C 178.7811 104.55299 167.0484 111.93536 155.05204 121.69064 C 154.12924 122.48161 152.94279 123.00892 152.28365 123.00892 C 151.75634 123.00892 149.91074 124.3272 148.19698 125.77731 C 146.48321 127.35925 144.76945 128.15022 144.11031 127.49108 C 142.79203 126.1728 147.8015 114.70375 152.67913 107.32138 C 156.7658 101.52094 156.7658 98.75255 153.07462 96.11599 C 149.2516 93.3476 147.27418 93.61126 140.68278 97.43427 Z" fill="black"/>
        </g>
        <g id="Graphic_136">
          <path d="M 148.98795 104.02568 C 148.59246 106.66224 147.27418 109.82611 146.35139 111.01257 C 145.29676 112.19902 143.31934 116.41752 142.00106 120.37236 C 140.55095 124.3272 139.23267 127.88656 138.83719 128.28204 C 138.4417 128.67753 138.17805 129.73215 138.04622 130.52312 C 137.78256 134.2143 137.5189 134.87345 136.0688 134.87345 C 135.27783 134.87345 132.64127 136.45538 130.13653 138.4328 C 125.52255 141.86034 113.26254 148.05626 111.02146 148.05626 C 108.12124 148.05626 110.2305 145.68335 115.10813 143.44227 C 118.00835 142.124 120.1176 140.80571 119.85394 140.54206 C 119.59029 140.14657 117.87652 140.54206 116.16276 141.46485 C 113.78985 142.6513 113.92168 142.25582 117.08555 139.48743 C 119.98577 136.9827 120.38126 136.32356 118.40383 136.85087 C 115.8991 137.64184 115.8991 137.64184 118.14018 135.79624 C 119.59029 134.60979 119.98577 133.687 119.06297 133.29151 C 118.00835 133.02785 118.272 131.57775 119.59029 128.94118 C 120.77674 126.7001 121.69954 124.3272 121.69954 123.53623 C 121.69954 122.74526 124.07244 118.79042 127.10449 114.57192 C 132.50944 107.05772 142.6602 99.4117 147.27418 99.27987 C 149.38343 99.27987 149.64709 99.93901 148.98795 104.02568 Z" fill="#f3f3f3"/>
        </g>
        <g id="Graphic_135">
          <path d="M 178.64927 112.06719 C 179.7039 116.54935 174.43077 131.57775 169.55313 138.69646 C 166.25743 143.31044 162.30258 147.13346 158.34774 149.37454 C 154.92021 151.22013 151.36085 153.72486 150.43806 154.91132 C 149.51526 156.09777 146.35139 157.6797 143.45117 158.47067 L 138.17805 159.78895 L 141.47375 157.28422 C 144.11031 155.17497 144.37397 154.64766 142.52837 154.64766 C 137.38708 154.64766 141.34192 146.73797 146.48321 146.73797 C 148.46064 146.73797 150.96537 146.07883 152.02 145.28787 C 153.60193 144.10141 153.4701 143.96958 151.0972 144.4969 C 147.14236 145.4197 145.56042 142.78313 149.38343 141.86034 C 151.36085 141.33302 151.75634 140.80571 150.56989 140.01474 C 149.38343 139.3556 151.22903 137.9055 156.10666 135.79624 C 162.8299 132.63237 171.7942 124.45903 171.7942 121.29516 C 171.7942 120.50419 172.717 118.79042 174.03528 117.47214 C 178.64927 112.33085 172.717 115.36289 166.1256 121.55881 C 162.30258 124.98634 156.63398 129.60032 153.33827 131.57775 C 145.69225 136.32356 141.86923 140.41023 140.8146 145.15604 C 140.41912 147.26529 138.57353 150.29733 136.9916 151.87927 C 133.82772 154.91132 133.69589 158.6025 136.72794 162.42552 C 137.78256 163.7438 137.38708 164.79842 135.146 166.51219 C 131.8503 169.28058 131.45481 170.46703 134.09138 170.46703 C 135.146 170.46703 136.20062 169.54423 136.72794 168.4896 C 137.12342 167.43498 138.17805 166.51219 138.96901 166.51219 C 139.89181 166.51219 139.23267 167.9623 137.5189 169.80789 C 135.80514 171.65348 134.75052 173.49907 135.27783 173.89456 C 135.80514 174.42187 137.25525 173.36725 138.57353 171.7853 C 140.15547 169.80789 141.60558 169.14875 142.79203 169.80789 C 144.11031 170.59886 143.97848 171.12617 142.26472 172.04897 C 141.07826 172.7081 140.41912 173.89456 140.94644 174.5537 C 142.00106 176.26746 146.61504 173.23542 153.99742 166.1167 C 157.02946 163.08466 161.24796 159.26164 163.3572 157.54788 C 166.65291 154.91132 166.78474 154.64766 164.28 155.3068 C 159.92968 156.49325 160.58882 153.85669 165.2028 151.0883 C 167.44388 149.90185 169.15764 148.31991 169.15764 147.66077 C 169.15764 147.13346 171.39872 144.4969 174.16711 141.86034 C 176.80367 139.3556 178.25378 137.64184 177.46281 138.03732 C 174.5626 139.61926 175.61722 136.32356 179.44023 132.23689 C 182.9996 128.15022 192.75487 123.93172 210.6835 118.6586 C 221.0979 115.62655 241.66309 114.04461 241.66309 116.28569 C 241.66309 117.20849 245.74976 117.7358 252.73664 117.7358 C 261.17364 117.7358 264.3375 118.26311 265.91945 119.84505 C 267.1059 121.0315 271.98354 122.74526 276.72935 123.79989 C 282.79345 124.98634 286.3528 126.56828 288.59388 128.94118 C 290.17582 130.78678 292.4169 132.23689 293.3397 132.36871 C 294.2625 132.50054 293.60335 132.89603 291.75775 133.42334 C 288.7257 134.34614 288.98936 134.47796 294.13066 135.40076 C 300.98572 136.71904 301.3812 138.82829 294.7898 138.96012 C 289.91216 139.09195 289.91216 139.09195 295.97625 140.14657 C 299.4038 140.80571 302.8313 141.59668 303.49045 142.124 C 305.9952 143.5741 305.0724 145.4197 302.04034 145.4197 C 300.19475 145.55152 301.64486 146.47432 305.5997 147.7926 C 309.2909 148.97905 312.05928 150.56099 311.79562 151.35196 C 311.53197 152.0111 310.47734 152.53841 309.4227 152.27475 C 305.9952 151.61561 307.57712 154.12035 311.53197 155.57046 C 313.77304 156.36142 315.4868 157.94336 315.4868 158.99799 C 315.4868 160.05261 316.4096 161.23906 317.46423 161.76638 C 318.51885 162.16186 319.44165 163.34831 319.44165 164.53476 C 319.44165 165.72122 320.6281 168.8851 322.0782 171.7853 C 325.90123 179.2995 325.2421 179.82682 320.75993 172.7081 C 317.06875 166.90767 313.37756 164.13928 314.9595 168.4896 C 315.4868 169.80789 314.9595 170.46703 313.37756 170.46703 C 311.53197 170.46703 311.92745 171.12617 314.9595 172.97176 C 319.83713 175.87198 321.41907 177.98123 321.5509 181.67241 C 321.5509 183.12252 322.73735 188.132 324.05563 192.74597 C 325.7694 198.81006 326.03305 201.44663 324.97843 201.8421 C 323.9238 202.10577 323.9238 203.29222 324.8466 205.5333 C 326.42854 210.01545 326.42854 219.6389 324.71477 218.58428 C 324.05563 218.1888 323.3965 216.3432 323.3965 214.62943 C 323.3965 212.91567 322.73735 211.07008 321.9464 210.6746 C 321.0236 210.01545 320.89176 212.25653 321.5509 217.7933 C 322.21004 223.46191 321.9464 226.36213 320.75993 227.81224 C 319.44165 229.39418 319.44165 229.78966 321.28724 229.78966 C 324.3193 229.78966 323.9238 232.03074 319.96896 235.98558 C 315.4868 240.46774 312.85025 238.3585 315.22315 232.03074 C 316.14595 229.65783 316.8051 226.2303 316.67326 224.3847 C 316.54143 221.74815 316.27778 222.0118 315.09132 225.83482 L 313.77304 230.4488 L 312.85025 226.49396 L 312.05928 222.53912 L 311.2683 226.49396 C 310.741 228.6032 311.00465 230.71246 311.6638 230.8443 C 313.37756 231.50343 310.3455 235.06279 308.10444 235.06279 C 307.0498 235.06279 306.25884 235.5901 306.25884 236.38107 C 306.25884 238.49032 302.304 237.963 301.51303 235.72193 C 300.4584 233.2172 298.34916 233.2172 298.34916 235.72193 C 298.34916 238.49032 296.10808 238.22666 294.3943 235.1946 C 292.68055 231.76708 292.68055 231.10794 295.05346 231.10794 C 296.10808 231.10794 297.03088 230.8443 297.03088 230.58063 C 297.03088 229.39418 290.43947 222.80277 289.91216 223.3301 C 289.6485 223.59374 289.91216 226.75762 290.43947 230.4488 C 290.9668 234.00816 291.23044 237.30386 290.83496 237.69935 C 289.78033 238.8858 283.71624 230.8443 284.37538 228.9987 C 285.16635 226.88944 281.47516 216.8705 278.70677 213.44298 C 277.25667 211.86104 276.72935 208.829 276.86118 204.6105 C 276.993 200.65566 276.59753 198.41458 275.9384 198.81006 C 273.56548 200.26017 274.48828 210.80642 277.25667 214.23395 C 278.57495 216.07954 280.1569 220.1662 280.55237 223.3301 C 281.07968 226.49396 281.607 230.4488 282.00248 232.03074 C 282.39796 234.27182 282.1343 234.79913 280.55237 234.27182 C 277.78398 233.08536 274.22462 226.09848 275.14742 223.59374 C 276.4657 220.42987 274.48828 212.652 272.51086 212.652 C 271.58806 212.652 270.4016 211.07008 269.8743 208.96083 C 268.68784 203.1604 268.29236 202.50125 268.16053 206.0606 C 268.0287 207.9062 269.21515 211.72922 270.66526 214.62943 C 272.51086 218.1888 273.03817 221.089 272.51086 224.12106 C 271.3244 230.18515 269.8743 230.58063 266.71042 225.57116 C 263.54655 220.29804 263.15106 216.3432 266.05128 217.39782 C 267.23773 217.92514 268.0287 217.52965 267.89687 216.47503 C 267.76504 213.9703 265.6558 209.09265 265.39214 210.6746 C 265.2603 211.33373 264.3375 210.14728 263.41472 208.03803 L 261.56913 204.08319 L 261.30547 208.69717 C 261.17364 211.2019 261.17364 213.70664 261.30547 214.23395 C 262.49192 221.87998 262.62375 235.06279 261.56913 235.06279 C 259.0644 235.06279 257.2188 229.526 257.87794 224.3847 C 258.40525 220.5617 258.1416 219.24342 256.6915 219.24342 C 255.63686 219.24342 254.8459 218.1888 254.8459 216.8705 C 254.71407 214.62943 248.2545 205.66512 248.2545 207.9062 C 248.2545 208.56534 249.44094 211.07008 251.02288 213.44298 C 254.58224 219.37524 252.86847 222.27546 248.64997 217.13417 C 247.06804 215.02492 245.61793 213.9703 245.61793 214.8931 C 245.61793 218.05696 248.64997 223.19826 251.81385 225.17568 C 253.5276 226.36213 254.8459 228.47138 254.71407 230.18515 C 254.58224 232.2944 254.31858 232.42622 253.9231 230.8443 C 253.39578 228.86687 243.24502 221.87998 240.7403 221.87998 C 240.21298 221.87998 242.05857 223.98923 244.9588 226.49396 C 248.7818 229.78966 249.57277 231.10794 247.99083 231.10794 C 246.67255 231.10794 245.61793 231.63526 245.61793 232.42622 C 245.61793 234.53547 241.2676 233.87633 236.78545 231.10794 C 230.985 227.6804 231.3805 228.73504 237.9719 235.32644 C 242.45405 239.8086 243.1132 240.99505 241.2676 241.39053 C 240.08115 241.6542 237.18093 240.86322 234.80803 239.8086 C 229.66673 237.17203 228.48028 237.17203 228.48028 239.67677 C 228.48028 240.7314 227.55748 241.6542 226.37103 241.6542 C 224.92092 241.6542 224.65726 240.86322 225.18458 239.14946 C 225.7119 237.30386 225.18458 236.38107 223.33898 235.72193 C 217.40672 233.87633 213.9792 229.78966 213.9792 224.51654 C 213.9792 221.74815 213.45188 218.97976 212.6609 218.58428 C 212.00177 218.1888 211.34263 216.3432 211.34263 214.62943 C 211.34263 211.46556 205.5422 203.42405 203.30112 203.42405 C 202.64198 203.42405 203.03746 205.00598 204.35574 206.9834 C 206.72865 210.54276 207.9151 217.92514 206.20133 217.92514 C 205.67402 217.92514 204.48757 217.13417 203.56477 216.21137 C 202.2465 214.8931 202.11466 215.02492 202.7738 216.8705 C 203.30112 218.32062 203.03746 219.24342 202.2465 219.24342 C 201.45552 219.24342 200.79638 218.45245 200.79638 217.39782 C 200.79638 214.8931 195.91874 209.09265 194.7323 210.2791 C 194.20498 210.80642 195.39143 213.31115 197.36885 215.94771 C 201.3237 221.089 204.75122 229.78966 204.75122 234.6673 C 204.75122 236.5129 204.2239 237.4357 203.43294 237.0402 C 202.64198 236.64472 202.11466 237.56752 202.11466 239.28128 C 202.11466 240.99505 201.71918 243.6316 201.3237 245.34538 C 200.66455 247.71828 200.9282 248.11377 202.64198 247.45462 C 203.82843 247.05914 204.75122 247.3228 204.75122 248.11377 C 204.75122 249.03656 203.82843 249.95936 202.7738 250.35484 C 201.71918 250.88215 200.79638 251.93678 200.79638 252.85958 C 200.79638 255.49614 188.27271 258.00087 177.72647 257.6054 C 175.61722 257.47356 170.3441 257.7372 166.1256 258.00087 C 160.72065 258.52818 158.74323 258.26453 159.40237 257.2099 C 160.0615 256.15528 159.40237 256.02345 157.16129 256.6826 C 144.11031 260.63743 126.31352 263.93313 124.3361 262.74668 C 123.4133 262.08754 124.59975 260.76926 127.89546 258.79184 C 130.79567 256.94625 132.24578 255.49614 131.19116 255.23248 C 130.26836 254.837 128.42277 255.49614 127.23632 256.55076 C 124.59975 258.92367 117.7447 260.9011 117.7447 259.18732 C 117.7447 256.81442 132.90492 249.03656 136.85977 249.30022 C 138.96901 249.56387 144.90128 248.7729 149.91074 247.58645 C 154.92021 246.4 160.19333 245.60903 161.77527 245.74086 C 163.22538 246.00452 167.70753 245.34538 171.53055 244.42258 C 179.04475 242.577 181.68131 243.23613 177.72647 246.13634 C 175.4854 247.71828 175.4854 247.8501 178.12195 248.50925 C 179.57206 248.90473 182.6041 248.11377 184.84518 246.79548 C 189.98648 243.76344 190.38196 243.6316 189.32734 246.53183 C 188.80003 247.98194 190.5138 247.05914 193.67767 244.29075 C 196.44606 241.78602 198.9508 239.54494 199.21445 239.4131 C 199.4781 239.28128 199.08262 237.963 198.15982 236.5129 C 196.1824 232.68988 193.67767 232.95354 194.7323 236.90838 C 195.52326 240.20408 192.8867 243.6316 191.83207 240.59956 C 191.56842 239.54494 189.591 239.28128 186.16347 239.8086 C 182.73594 240.3359 181.02217 240.20408 181.02217 239.14946 C 181.02217 238.3585 179.96755 237.69935 178.64927 237.69935 C 177.33098 237.69935 174.95808 236.77655 173.37614 235.5901 C 170.08044 233.34902 169.28947 235.06279 172.45335 237.69935 C 173.77163 238.75397 174.03528 239.94042 173.24431 240.7314 C 172.45335 241.52236 170.60775 240.3359 167.9712 237.56752 C 163.88452 232.95354 162.96172 230.31697 165.07097 229.526 C 165.73011 229.26235 164.93915 227.28493 163.09355 225.17568 C 160.32516 221.74815 159.92968 221.61632 159.92968 223.8574 C 159.92968 225.3075 161.37979 229.65783 163.22538 233.48085 C 166.91657 241.52236 167.0484 241.6542 165.2028 241.6542 C 162.96172 241.6542 158.6114 235.98558 158.6114 232.95354 C 158.6114 229.39418 153.4701 222.53912 153.33827 226.09848 C 153.33827 227.28493 153.99742 228.73504 154.78838 229.13052 C 155.44752 229.65783 155.843 230.71246 155.57935 231.50343 C 155.3157 232.42622 155.57935 234.14 156.2385 235.5901 C 157.16129 237.30386 157.16129 237.83118 155.97484 237.4357 C 155.18387 237.17203 154.52473 236.5129 154.65656 235.98558 C 154.65656 235.45827 153.33827 233.08536 151.49268 230.97612 C 149.51526 228.73504 148.06515 225.83482 148.06515 224.51654 C 148.06515 223.19826 147.66967 221.089 147.27418 219.90256 C 146.61504 218.1888 146.21956 218.05696 145.29676 219.50707 C 144.5058 220.69353 143.84665 220.82535 142.79203 219.77073 C 140.8146 217.7933 142.39654 214.36578 145.82407 213.31115 C 147.66967 212.78384 148.06515 212.25653 147.14236 211.72922 C 144.90128 210.93825 144.90128 207.3789 147.14236 207.3789 C 148.06515 207.3789 149.51526 208.03803 150.43806 208.96083 C 153.07462 211.5974 153.60193 209.22448 151.49268 204.87416 C 148.85612 199.99652 148.85612 199.33738 151.36085 200.26017 C 152.67913 200.78749 153.33827 200.26017 153.33827 198.67824 C 153.33827 196.56899 153.60193 196.56899 154.65656 198.15092 C 155.44752 199.33738 155.3157 200.392 154.26107 201.05114 C 153.4701 201.57845 153.20645 202.36942 153.73376 203.02856 C 156.2385 205.5333 157.6886 196.04168 155.18387 193.14146 C 154.52473 192.21866 149.38343 195.6462 149.38343 196.83264 C 149.38343 197.62361 148.59246 198.15092 147.66967 198.15092 C 146.61504 198.15092 144.5058 199.60103 142.79203 201.44663 C 141.07826 203.29222 138.96901 204.74233 138.04622 204.74233 C 137.12342 204.74233 136.72794 205.79695 137.12342 207.24706 C 138.04622 210.93825 133.56406 214.76126 126.84083 215.81589 L 121.0404 216.73868 L 125.52255 218.7161 C 130.9275 220.95718 129.87288 222.53912 121.83136 223.8574 C 117.7447 224.51654 116.29459 224.3847 116.95373 223.3301 C 118.14018 221.61632 116.42641 220.95718 108.12124 220.1662 C 103.11178 219.6389 101.92532 219.90256 102.45264 221.35267 C 102.84812 222.53912 102.18898 223.19826 100.60704 223.19826 C 98.89328 223.19826 97.70683 222.0118 97.17951 219.77073 C 95.99306 215.28857 92.17005 211.33373 90.19263 212.52018 C 89.138 213.17932 89.53349 214.23395 91.11542 216.07954 C 93.88381 219.1116 95.7294 225.04385 94.2793 226.36213 C 93.75198 226.88944 93.3565 227.94407 93.3565 228.6032 C 93.3565 229.26235 92.82919 229.9215 92.03822 230.05332 C 91.37908 230.05332 90.19263 230.97612 89.40166 231.8989 C 88.74252 232.8217 85.05133 234.00816 81.22832 234.53547 C 75.29605 235.32644 74.37326 235.06279 73.05498 232.55805 C 72.26401 231.10794 71.86852 228.33955 72.39584 226.49396 C 73.05498 223.72557 72.79132 223.19826 70.418415 223.19826 C 68.83648 223.19826 67.650025 223.72557 67.650025 224.51654 C 67.650025 225.17568 66.990885 225.83482 66.19992 225.83482 C 63.43153 225.83482 68.04551 201.71028 71.20938 199.73286 C 71.86852 199.20555 72.52766 196.04168 72.52766 192.74597 C 72.52766 188.00016 73.58229 184.96812 77.53713 178.50854 C 82.94208 169.80789 94.41112 158.6025 97.97048 158.6025 C 99.15694 158.6025 101.00253 157.41605 102.32081 155.96594 C 104.82554 152.9339 107.85759 152.40658 106.80296 155.17497 C 105.74834 157.94336 110.88963 157.41605 115.37179 154.384 C 120.1176 151.0883 121.43588 151.35196 118.00835 155.04314 C 116.42641 156.7569 115.50362 158.6025 116.03093 158.99799 C 118.14018 161.23906 121.43588 159.5253 124.3361 154.51583 C 126.18169 151.48379 129.08191 147.39711 130.9275 145.55152 C 132.7731 143.70593 134.2232 141.7285 134.2232 141.2012 C 134.2232 139.88291 143.583 132.7642 153.4701 126.7001 C 158.47957 123.66806 162.56624 120.37236 162.56624 119.44956 C 162.56624 118.52677 163.3572 118.13128 164.41183 118.52677 C 165.46646 118.92225 168.4985 117.20849 171.2669 114.57192 C 176.9355 109.16697 177.99012 108.90332 178.64927 112.06719 Z" fill="#f3f3f3"/>
        </g>
        <g id="Graphic_134">
          <path d="M 198.5553 118.6586 C 197.6325 118.92225 196.05057 118.92225 195.2596 118.6586 C 194.3368 118.26311 194.99595 117.99945 196.84154 117.99945 C 198.68713 117.99945 199.34627 118.26311 198.5553 118.6586 Z" fill="#f3f3f3"/>
        </g>
        <g id="Graphic_133">
          <path d="M 190.90928 123.00892 C 190.5138 123.66806 189.591 124.3272 188.80003 124.3272 C 188.14089 124.3272 187.61357 123.66806 187.61357 123.00892 C 187.61357 122.21795 188.53637 121.69064 189.72282 121.69064 C 190.77745 121.69064 191.30476 122.21795 190.90928 123.00892 Z" fill="#f3f3f3"/>
        </g>
        <g id="Graphic_132">
          <path d="M 319.44165 155.96594 C 319.44165 156.62508 319.178 157.28422 318.91434 157.28422 C 318.51885 157.28422 317.8597 156.62508 317.46423 155.96594 C 317.06875 155.17497 317.3324 154.64766 317.99154 154.64766 C 318.7825 154.64766 319.44165 155.17497 319.44165 155.96594 Z" fill="#f3f3f3"/>
        </g>
        <g id="Graphic_131">
          <path d="M 155.97484 158.6025 C 155.97484 159.26164 155.05204 159.92078 153.99742 159.92078 C 152.94279 159.92078 152.02 159.26164 152.02 158.6025 C 152.02 157.81153 152.94279 157.28422 153.99742 157.28422 C 155.05204 157.28422 155.97484 157.81153 155.97484 158.6025 Z" fill="#f3f3f3"/>
        </g>
        <g id="Graphic_130">
          <path d="M 329.85607 174.68553 C 331.04252 177.32209 331.17435 179.03585 330.25155 179.95865 C 328.6696 181.54059 325.63757 180.09048 326.6922 178.37671 C 327.08768 177.71757 326.56037 175.34467 325.3739 173.23542 C 322.86918 168.09412 322.86918 167.43498 325.7694 169.28058 C 327.08768 170.07154 328.93327 172.57628 329.85607 174.68553 Z" fill="#f3f3f3"/>
        </g>
        <g id="Graphic_129">
          <path d="M 333.94274 183.64984 C 333.94274 184.30898 333.41543 184.96812 332.62446 184.96812 C 331.9653 184.96812 331.30618 184.30898 331.30618 183.64984 C 331.30618 182.85887 331.9653 182.33156 332.62446 182.33156 C 333.41543 182.33156 333.94274 182.85887 333.94274 183.64984 Z" fill="#f3f3f3"/>
        </g>
        <g id="Graphic_128">
          <path d="M 332.49263 191.55952 C 334.2064 195.77802 336.31564 199.73286 337.1066 199.99652 C 337.8976 200.392 337.37027 200.65566 335.92016 200.392 C 333.01994 199.99652 327.615 191.29586 327.48316 186.55005 C 327.2195 181.40876 329.32876 183.38618 332.49263 191.55952 Z" fill="#f3f3f3"/>
        </g>
        <g id="Graphic_127">
          <path d="M 334.60188 209.7518 C 335.261 214.10212 336.052 215.28857 338.16124 215.28857 C 340.4023 215.28857 340.53414 215.55223 338.68855 217.266 C 337.63392 218.32062 335.78833 219.24342 334.60188 219.24342 C 333.01994 219.24342 332.7563 219.77073 333.8109 221.74815 C 335.39285 224.51654 334.2064 233.34902 332.22897 234.6673 C 331.438 235.1946 331.17435 234.6673 331.70166 233.2172 C 332.7563 230.71246 331.56983 224.51654 330.11972 224.51654 C 329.72424 224.51654 329.32876 226.88944 329.32876 229.9215 C 329.32876 233.08536 328.5378 235.72193 327.35133 236.5129 C 325.7694 237.69935 326.03305 237.83118 328.40596 237.30386 C 329.9879 236.90838 331.30618 237.0402 331.30618 237.69935 C 331.30618 239.01763 327.87865 241.78602 326.56037 241.52236 C 323.66015 240.99505 322.0782 241.78602 322.0782 243.6316 C 322.0782 244.68624 321.1554 245.60903 320.1008 245.60903 C 317.59606 245.60903 317.46423 245.8727 322.0782 237.56752 C 324.18746 233.61268 326.03305 228.6032 326.03305 226.2303 C 326.03305 223.98923 326.6922 221.61632 327.35133 221.22084 C 328.1423 220.82535 328.6696 217.13417 328.6696 213.17932 C 328.6696 205.13781 330.25155 203.95136 332.3608 210.2791 L 333.8109 214.62943 L 333.15177 210.01545 C 332.7563 207.51072 331.56983 204.08319 330.5152 202.50125 C 329.4606 200.91931 328.6696 198.81006 328.6696 197.88727 C 328.6696 194.45974 333.6791 204.47867 334.60188 209.7518 Z" fill="#f3f3f3"/>
        </g>
        <g id="Graphic_126">
          <path d="M 350.2894 204.21502 C 353.0578 206.9834 353.0578 218.97976 350.2894 222.9346 C 347.7847 226.49396 343.698 226.75762 342.7752 223.19826 C 342.37974 221.74815 342.6434 220.5617 343.43436 220.5617 C 344.0935 220.5617 344.489 217.13417 344.22533 212.652 C 343.96167 206.58792 344.35716 204.34684 345.80727 203.42405 C 348.312 201.8421 347.9165 201.71028 350.2894 204.21502 Z" fill="#f3f3f3"/>
        </g>
        <g id="Graphic_125">
          <path d="M 142.79203 206.0606 C 142.79203 206.71975 141.86923 207.3789 140.68278 207.3789 C 139.62815 207.3789 139.10084 206.71975 139.49633 206.0606 C 139.89181 205.26964 140.8146 204.74233 141.60558 204.74233 C 142.26472 204.74233 142.79203 205.26964 142.79203 206.0606 Z" fill="#f3f3f3"/>
        </g>
        <g id="Graphic_124">
          <path d="M 356.48534 221.4845 C 355.69437 224.25288 355.03523 228.6032 355.03523 231.10794 C 355.03523 234.53547 354.63975 235.1946 353.71695 233.7445 C 352.39867 231.76708 352.79415 228.33955 355.2989 218.58428 C 356.08986 215.68406 357.01265 213.9703 357.2763 214.8931 C 357.53996 215.68406 357.2763 218.7161 356.48534 221.4845 Z" fill="#f3f3f3"/>
        </g>
        <g id="Graphic_123">
          <path d="M 139.75998 221.35267 C 140.15547 222.4073 139.75998 224.7802 138.83719 226.49396 C 137.91439 228.20773 137.5189 230.18515 138.04622 230.8443 C 138.4417 231.63526 138.4417 233.2172 138.04622 234.40365 C 137.38708 236.1174 136.85977 235.85375 135.40966 232.95354 C 133.16858 228.73504 133.03675 222.9346 135.146 220.82535 C 137.25525 218.7161 138.70536 218.84793 139.75998 221.35267 Z" fill="#f3f3f3"/>
        </g>
        <g id="Graphic_122">
          <path d="M 132.24578 227.41676 C 132.24578 231.63526 131.8503 232.55805 130.9275 231.10794 C 129.87288 229.39418 129.4774 229.39418 128.42277 230.97612 C 127.23632 232.68988 124.3361 232.03074 124.3361 229.9215 C 124.3361 228.73504 130.40019 221.87998 131.58664 221.87998 C 131.98213 221.87998 132.24578 224.3847 132.24578 227.41676 Z" fill="#f3f3f3"/>
        </g>
        <g id="Graphic_121">
          <path d="M 210.02435 232.8217 C 210.02435 236.38107 207.78327 234.40365 206.9923 230.18515 C 206.59682 228.0759 205.93768 225.3075 205.41036 223.8574 C 205.01488 222.4073 205.80585 223.3301 207.25596 225.83482 C 208.70607 228.33955 209.89252 231.50343 210.02435 232.8217 Z" fill="#f3f3f3"/>
        </g>
        <g id="Graphic_120">
          <path d="M 145.42859 224.51654 C 145.42859 225.3075 146.61504 228.33955 147.93332 231.10794 C 149.38343 234.00816 149.91074 236.64472 149.38343 237.0402 C 148.06515 237.83118 141.2101 225.96665 142.26472 224.3847 C 143.18751 222.80277 145.42859 222.9346 145.42859 224.51654 Z" fill="#f3f3f3"/>
        </g>
        <g id="Graphic_119">
          <path d="M 340.4023 229.39418 C 339.21586 235.45827 337.37027 238.8858 335.92016 237.4357 C 334.99736 236.5129 339.3477 223.19826 340.53414 223.19826 C 341.06145 223.19826 340.92963 225.96665 340.4023 229.39418 Z" fill="#f3f3f3"/>
        </g>
        <g id="Graphic_118">
          <path d="M 350.55308 229.65783 C 348.18017 232.2944 341.45694 233.08536 342.2479 230.58063 C 342.51156 229.78966 343.698 229.26235 344.88447 229.526 C 345.9391 229.65783 347.25737 229.26235 347.7847 228.47138 C 348.18017 227.81224 349.49845 227.1531 350.6849 227.1531 C 352.5305 227.1531 352.5305 227.41676 350.55308 229.65783 Z" fill="#f3f3f3"/>
        </g>
        <g id="Graphic_117">
          <path d="M 144.63762 235.32644 C 145.82407 237.56752 146.48321 239.8086 145.9559 240.20408 C 144.90128 241.39053 140.15547 234.79913 140.15547 232.03074 C 140.15547 228.73504 142.13289 230.31697 144.63762 235.32644 Z" fill="#f3f3f3"/>
        </g>
        <g id="Graphic_116">
          <path d="M 134.2232 235.06279 C 134.61869 235.72193 134.35503 236.38107 133.69589 236.38107 C 132.90492 236.38107 132.24578 235.72193 132.24578 235.06279 C 132.24578 234.27182 132.50944 233.7445 132.7731 233.7445 C 133.16858 233.7445 133.82772 234.27182 134.2232 235.06279 Z" fill="#f3f3f3"/>
        </g>
        <g id="Graphic_115">
          <path d="M 220.43877 235.85375 C 222.41619 237.30386 222.9435 238.49032 222.15253 239.28128 C 221.36156 240.07225 219.91145 239.67677 218.06586 238.22666 C 213.18822 234.00816 215.03381 232.16257 220.43877 235.85375 Z" fill="#f3f3f3"/>
        </g>
        <g id="Graphic_114">
          <path d="M 251.28654 237.69935 C 251.81385 239.8086 251.28654 240.3359 248.2545 240.3359 C 243.6405 240.3359 241.92674 236.77655 246.0134 235.98558 C 247.59535 235.72193 249.3091 235.32644 249.7046 235.1946 C 250.2319 235.1946 250.89105 236.24924 251.28654 237.69935 Z" fill="#f3f3f3"/>
        </g>
        <g id="Graphic_113">
          <path d="M 345.67544 238.09483 C 343.96167 241.78602 339.21586 245.21355 339.21586 242.7088 C 339.21586 240.99505 344.35716 235.06279 346.07092 235.06279 C 346.59823 235.06279 346.4664 236.38107 345.67544 238.09483 Z" fill="#f3f3f3"/>
        </g>
        <g id="Graphic_112">
          <path d="M 270.4016 239.01763 C 271.3244 240.46774 271.58806 241.6542 270.92892 241.6542 C 269.61064 241.6542 266.71042 238.75397 266.71042 237.4357 C 266.71042 235.45827 268.68784 236.38107 270.4016 239.01763 Z" fill="#f3f3f3"/>
        </g>
        <g id="Graphic_111">
          <path d="M 259.19622 240.99505 C 256.42783 243.1043 255.50503 242.577 256.55966 239.8086 C 257.08697 238.62214 258.27342 238.09483 259.45988 238.49032 C 261.30547 239.28128 261.17364 239.54494 259.19622 240.99505 Z" fill="#f3f3f3"/>
        </g>
        <g id="Graphic_110">
          <path d="M 295.7126 240.3359 C 295.7126 240.99505 295.1853 241.6542 294.52614 241.6542 C 293.73518 241.6542 292.81238 240.99505 292.4169 240.3359 C 292.0214 239.54494 292.54872 239.01763 293.60335 239.01763 C 294.7898 239.01763 295.7126 239.54494 295.7126 240.3359 Z" fill="#f3f3f3"/>
        </g>
        <g id="Graphic_109">
          <path d="M 157.29312 241.6542 C 157.29312 242.31333 156.10666 242.97247 154.78838 242.97247 C 153.33827 242.97247 151.75634 242.31333 151.36085 241.6542 C 150.83354 240.86322 152.02 240.3359 153.86559 240.3359 C 155.71118 240.3359 157.29312 240.86322 157.29312 241.6542 Z" fill="#f3f3f3"/>
        </g>
        <g id="Graphic_108">
          <path d="M 283.18893 241.6542 C 282.79345 242.31333 281.47516 242.97247 280.42054 242.97247 C 279.3659 242.97247 278.57495 242.31333 278.57495 241.6542 C 278.57495 240.86322 279.7614 240.3359 281.34334 240.3359 C 282.79345 240.3359 283.5844 240.86322 283.18893 241.6542 Z" fill="#f3f3f3"/>
        </g>
        <g id="Graphic_107">
          <path d="M 316.8051 241.6542 C 316.8051 242.31333 316.14595 242.97247 315.35498 242.97247 C 314.69584 242.97247 314.4322 242.31333 314.82767 241.6542 C 315.22315 240.86322 315.8823 240.3359 316.27778 240.3359 C 316.54143 240.3359 316.8051 240.86322 316.8051 241.6542 Z" fill="#f3f3f3"/>
        </g>
        <g id="Graphic_106">
          <path d="M 312.5866 250.6185 C 313.37756 255.49614 309.02723 256.41893 283.5844 256.15528 C 270.4016 256.15528 256.42783 256.6826 252.20933 257.6054 C 247.859 258.39635 243.37685 258.66 242.05857 258.26453 C 239.94932 257.34173 240.08115 257.07807 242.98137 254.70517 L 246.27707 252.0686 L 242.58588 253.65054 C 237.31276 256.02345 237.0491 254.4415 241.92674 249.1684 C 246.14524 244.5544 246.54072 244.42258 251.68202 245.60903 C 254.71407 246.26817 267.1059 246.53183 279.3659 246.26817 C 297.95367 245.74086 301.64486 245.34538 301.51303 243.6316 C 301.11755 240.46774 312.05928 247.19097 312.5866 250.6185 Z" fill="#f3f3f3"/>
        </g>
        <g id="Graphic_105">
          <path d="M 131.98213 245.8727 C 132.37761 247.58645 131.58664 248.2456 129.34556 248.2456 C 124.3361 248.2456 120.51308 249.6957 121.17222 251.40947 C 121.43588 252.20044 120.51308 253.65054 119.06297 254.57334 C 117.61287 255.49614 116.42641 255.62797 116.42641 254.96882 C 116.42641 254.17786 116.95373 253.3869 117.61287 252.9914 C 118.272 252.59592 118.53566 251.01398 118.14018 249.56387 C 117.48104 246.9273 117.48104 246.9273 114.18534 249.56387 C 108.91221 253.65054 104.82554 252.72775 108.91221 248.2456 C 109.70318 247.3228 108.25307 247.8501 105.35285 249.56387 L 100.21156 252.59592 L 102.58447 249.03656 C 106.14382 243.6316 108.25307 242.97247 120.38126 243.36795 C 129.87288 243.6316 131.58664 244.0271 131.98213 245.8727 Z" fill="#f3f3f3"/>
        </g>
        <g id="Graphic_104">
          <path d="M 268.68784 244.29075 C 269.08333 244.9499 268.556 245.60903 267.5014 245.60903 C 266.44676 245.60903 265.12848 244.9499 264.733 244.29075 C 264.3375 243.49978 264.86483 242.97247 265.91945 242.97247 C 266.97408 242.97247 268.29236 243.49978 268.68784 244.29075 Z" fill="#f3f3f3"/>
        </g>
        <g id="Graphic_103">
          <path d="M 347.12555 244.29075 C 347.12555 245.8727 341.85242 248.64108 340.7978 247.58645 C 340.2705 247.05914 341.06145 245.8727 342.37974 244.81806 C 345.4118 242.7088 347.12555 242.44516 347.12555 244.29075 Z" fill="#f3f3f3"/>
        </g>
        <g id="Graphic_102">
          <path d="M 326.03305 246.13634 C 326.03305 247.19097 325.50574 248.37742 324.8466 248.90473 C 323.26466 249.82753 321.68273 247.3228 322.73735 245.60903 C 323.9238 243.6316 326.03305 244.0271 326.03305 246.13634 Z" fill="#f3f3f3"/>
        </g>
        <g id="Graphic_101">
          <path d="M 237.0491 252.20044 C 234.2807 255.23248 231.11684 255.62797 231.11684 252.9914 C 231.11684 251.27764 232.8306 250.6185 238.23556 249.6957 C 238.8947 249.6957 238.36738 250.75033 237.0491 252.20044 Z" fill="#f3f3f3"/>
        </g>
        <g id="Graphic_100">
          <path d="M 131.58664 129.07301 C 129.21374 131.18226 128.68642 131.97323 130.40019 131.05043 C 132.7731 129.86398 137.38708 125.51365 136.0688 125.64548 C 135.80514 125.77731 133.82772 127.22742 131.58664 129.07301 Z" fill="black"/>
        </g>
        <g id="Graphic_99">
          <path d="M 236.1263 118.6586 C 236.91727 118.92225 238.4992 118.92225 239.422 118.6586 C 240.21298 118.26311 239.55384 117.99945 237.70824 117.99945 C 235.86265 117.99945 235.2035 118.26311 236.1263 118.6586 Z" fill="black"/>
        </g>
        <g id="Graphic_98">
          <path d="M 230.85318 119.97688 C 231.77598 120.37236 232.96243 120.24053 233.35792 119.84505 C 233.88523 119.44956 233.09426 119.05408 231.64415 119.1859 C 230.19404 119.1859 229.79856 119.58139 230.85318 119.97688 Z" fill="black"/>
        </g>
        <g id="Graphic_97">
          <path d="M 250.6274 121.29516 C 252.20933 121.55881 254.58224 121.55881 255.90052 121.29516 C 257.08697 120.89967 255.7687 120.63602 252.86847 120.76784 C 249.96825 120.76784 248.91363 121.0315 250.6274 121.29516 Z" fill="black"/>
        </g>
        <g id="Graphic_96">
          <path d="M 255.50503 124.45903 C 253.79127 125.25 254.97772 125.38183 259.45988 124.85451 C 263.15106 124.3272 266.31494 123.79989 266.5786 123.53623 C 267.76504 122.48161 258.00977 123.27258 255.50503 124.45903 Z" fill="black"/>
        </g>
        <g id="Graphic_95">
          <path d="M 265.12848 127.88656 C 265.91945 128.15022 267.5014 128.15022 268.4242 127.88656 C 269.21515 127.49108 268.556 127.22742 266.71042 127.22742 C 264.86483 127.22742 264.2057 127.49108 265.12848 127.88656 Z" fill="black"/>
        </g>
        <g id="Graphic_94">
          <path d="M 217.01124 129.20484 C 218.1977 129.4685 220.04328 129.4685 220.96608 129.20484 C 221.75705 128.80936 220.83425 128.5457 218.59317 128.5457 C 216.48392 128.5457 215.69295 128.80936 217.01124 129.20484 Z" fill="black"/>
        </g>
        <g id="Graphic_93">
          <path d="M 208.70607 130.9186 C 206.9923 132.10506 206.9923 132.23689 208.70607 132.23689 C 209.7607 132.23689 211.60628 131.57775 212.6609 130.9186 C 214.37467 129.73215 214.37467 129.60032 212.6609 129.60032 C 211.60628 129.60032 209.7607 130.25947 208.70607 130.9186 Z" fill="black"/>
        </g>
        <g id="Graphic_92">
          <path d="M 245.61793 132.23689 C 245.61793 132.89603 246.27707 133.55517 246.9362 133.55517 C 247.72718 133.55517 248.2545 132.89603 248.2545 132.23689 C 248.2545 131.44592 247.72718 130.9186 246.9362 130.9186 C 246.27707 130.9186 245.61793 131.44592 245.61793 132.23689 Z" fill="black"/>
        </g>
        <g id="Graphic_91">
          <path d="M 222.54801 133.55517 L 217.2749 134.47796 L 223.60264 134.74162 C 227.03017 134.74162 229.79856 134.2143 229.79856 133.55517 C 229.79856 132.7642 229.40307 132.36871 228.87576 132.36871 C 228.21662 132.50054 225.44823 133.02785 222.54801 133.55517 Z" fill="black"/>
        </g>
        <g id="Graphic_90">
          <path d="M 276.72935 133.42334 C 276.20204 134.08248 277.12484 134.34614 278.57495 133.95065 C 281.607 133.15968 282.00248 132.23689 279.3659 132.23689 C 278.3113 132.23689 277.12484 132.7642 276.72935 133.42334 Z" fill="black"/>
        </g>
        <g id="Graphic_89">
          <path d="M 250.2319 134.87345 C 250.75922 135.66442 251.68202 135.92807 252.34116 135.53259 C 254.18675 134.34614 253.79127 133.55517 251.41836 133.55517 C 250.36374 133.55517 249.83643 134.2143 250.2319 134.87345 Z" fill="black"/>
        </g>
        <g id="Graphic_88">
          <path d="M 260.11902 136.19173 C 260.11902 136.85087 260.91 137.51001 261.9646 137.51001 C 263.01923 137.51001 264.3375 136.85087 264.733 136.19173 C 265.12848 135.40076 264.3375 134.87345 262.8874 134.87345 C 261.30547 134.87345 260.11902 135.40076 260.11902 136.19173 Z" fill="black"/>
        </g>
        <g id="Graphic_87">
          <path d="M 233.7534 137.51001 C 232.03964 138.56463 232.17146 138.82829 234.14889 138.82829 C 235.33534 138.82829 236.38996 138.16915 236.38996 137.51001 C 236.38996 135.92807 236.25813 135.92807 233.7534 137.51001 Z" fill="black"/>
        </g>
        <g id="Graphic_86">
          <path d="M 153.99742 138.82829 C 153.60193 139.48743 153.86559 140.14657 154.52473 140.14657 C 155.3157 140.14657 155.97484 139.48743 155.97484 138.82829 C 155.97484 138.03732 155.71118 137.51001 155.44752 137.51001 C 155.05204 137.51001 154.3929 138.03732 153.99742 138.82829 Z" fill="black"/>
        </g>
        <g id="Graphic_85">
          <path d="M 269.34698 138.82829 C 269.34698 139.48743 269.8743 140.14657 270.53343 140.14657 C 271.3244 140.14657 272.2472 139.48743 272.64268 138.82829 C 273.03817 138.03732 272.51086 137.51001 271.45623 137.51001 C 270.26978 137.51001 269.34698 138.03732 269.34698 138.82829 Z" fill="black"/>
        </g>
        <g id="Graphic_84">
          <path d="M 275.9384 142.78313 C 275.9384 143.44227 276.59753 144.10141 277.25667 144.10141 C 278.04763 144.10141 278.57495 143.44227 278.57495 142.78313 C 278.57495 141.99216 278.04763 141.46485 277.25667 141.46485 C 276.59753 141.46485 275.9384 141.99216 275.9384 142.78313 Z" fill="black"/>
        </g>
        <g id="Graphic_83">
          <path d="M 253.5276 146.60615 C 253.5276 147.7926 257.08697 152.0111 258.27342 152.0111 C 259.9872 152.0111 258.40525 147.92443 256.16417 146.73797 C 254.58224 145.947 253.5276 145.81518 253.5276 146.60615 Z" fill="black"/>
        </g>
        <g id="Graphic_82">
          <path d="M 280.94785 147.66077 C 281.87065 148.05626 283.0571 147.92443 283.4526 147.52894 C 283.9799 147.13346 283.18893 146.73797 281.73882 146.8698 C 280.2887 146.8698 279.89323 147.26529 280.94785 147.66077 Z" fill="black"/>
        </g>
        <g id="Graphic_81">
          <path d="M 244.29965 150.42916 C 244.29965 151.0883 245.74976 152.27475 247.59535 153.06572 C 251.41836 154.91132 252.0775 152.80207 248.38632 150.69282 C 245.22244 149.11088 244.29965 148.97905 244.29965 150.42916 Z" fill="black"/>
        </g>
        <g id="Graphic_80">
          <path d="M 285.8255 153.32938 C 285.43 153.98852 285.56183 154.64766 286.3528 154.64766 C 287.01194 154.64766 288.06657 153.98852 288.46205 153.32938 C 288.85754 152.53841 288.7257 152.0111 287.93474 152.0111 C 287.2756 152.0111 286.22098 152.53841 285.8255 153.32938 Z" fill="black"/>
        </g>
        <g id="Graphic_79">
          <path d="M 224.52544 155.57046 C 224.52544 156.49325 226.2392 159.12981 228.48028 161.50272 C 230.58953 163.87562 232.43512 165.06208 232.43512 164.2711 C 232.43512 163.34831 230.72136 160.71175 228.48028 158.33885 C 226.37103 155.96594 224.52544 154.77949 224.52544 155.57046 Z" fill="black"/>
        </g>
        <g id="Graphic_78">
          <path d="M 233.7534 156.88874 C 233.7534 157.54788 234.93985 159.26164 236.38996 160.57992 C 237.84007 161.8982 239.02652 162.42552 239.02652 161.63455 C 239.02652 160.9754 237.84007 159.26164 236.38996 157.94336 C 234.93985 156.62508 233.7534 156.09777 233.7534 156.88874 Z" fill="black"/>
        </g>
        <g id="Graphic_77">
          <path d="M 241.66309 157.02056 C 241.66309 157.6797 242.84954 159.26164 244.29965 160.57992 C 247.3317 163.34831 247.859 161.10723 244.82696 158.07519 C 242.58588 155.70228 241.66309 155.43863 241.66309 157.02056 Z" fill="black"/>
        </g>
        <g id="Graphic_76">
          <path d="M 288.46205 158.47067 C 287.53926 160.05261 290.044 161.63455 291.75775 160.57992 C 293.20786 159.65713 292.28507 157.28422 290.43947 157.28422 C 289.78033 157.28422 288.98936 157.81153 288.46205 158.47067 Z" fill="black"/>
        </g>
        <g id="Graphic_75">
          <path d="M 165.2028 159.5253 C 161.77527 160.84358 153.4701 167.83047 150.56989 171.91714 C 148.19698 175.34467 148.06515 175.87198 149.91074 177.8494 C 151.0972 178.90403 152.02 180.35413 152.02 181.01327 C 152.02 182.33156 160.85247 177.58574 162.03893 175.60832 C 162.43441 174.94918 160.85247 175.4765 158.34774 177.05843 C 152.94279 180.35413 152.41548 180.35413 152.67913 177.19026 C 152.67913 175.87198 154.52473 173.1036 156.7658 171.12617 C 158.87505 169.14875 159.5342 168.22595 158.34774 169.14875 C 157.02946 169.93972 155.44752 170.46703 154.65656 170.20337 C 153.99742 170.07154 157.02946 167.30315 161.51162 164.13928 C 169.15764 158.99799 170.08044 157.6797 165.2028 159.5253 Z" fill="black"/>
        </g>
        <g id="Graphic_74">
          <path d="M 263.67837 162.68917 C 266.5786 167.56681 269.34698 170.20337 269.34698 167.9623 C 269.34698 165.72122 265.52397 160.18444 263.2829 159.39347 C 261.70095 158.73433 261.83278 159.39347 263.67837 162.68917 Z" fill="black"/>
        </g>
        <g id="Graphic_73">
          <path d="M 219.2523 160.9754 C 219.2523 162.55734 224.3936 167.0395 225.18458 166.38036 C 225.97554 165.45756 222.0207 159.92078 220.43877 159.92078 C 219.77962 159.92078 219.2523 160.4481 219.2523 160.9754 Z" fill="black"/>
        </g>
        <g id="Graphic_72">
          <path d="M 213.9792 164.53476 C 215.69295 166.38036 217.67038 167.83047 218.32952 167.83047 C 219.12048 167.83047 218.32952 166.38036 216.61575 164.53476 C 214.90199 162.68917 212.92457 161.23906 212.26542 161.23906 C 211.47446 161.23906 212.26542 162.68917 213.9792 164.53476 Z" fill="black"/>
        </g>
        <g id="Graphic_71">
          <path d="M 271.98354 162.55734 C 271.98354 164.6666 275.0156 170.46703 276.20204 170.46703 C 277.65215 170.46703 277.52032 169.54423 275.27924 165.1939 C 273.17 161.23906 271.98354 160.18444 271.98354 162.55734 Z" fill="black"/>
        </g>
        <g id="Graphic_70">
          <path d="M 302.56766 162.821 C 303.35863 165.1939 306.25884 165.58939 306.25884 163.34831 C 306.25884 162.16186 305.33605 161.23906 304.1496 161.23906 C 302.96314 161.23906 302.304 161.8982 302.56766 162.821 Z" fill="black"/>
        </g>
        <g id="Graphic_69">
          <path d="M 114.84448 164.79842 C 115.76727 165.1939 116.95373 165.06208 117.34921 164.6666 C 117.87652 164.2711 117.08555 163.87562 115.63544 164.00745 C 114.18534 164.00745 113.78985 164.40294 114.84448 164.79842 Z" fill="black"/>
        </g>
        <g id="Graphic_68">
          <path d="M 204.75122 165.06208 C 204.75122 165.72122 206.20133 167.17133 208.04693 168.35778 C 211.86994 170.86251 212.52908 169.28058 208.96972 166.1167 C 206.20133 163.61197 204.75122 163.21648 204.75122 165.06208 Z" fill="black"/>
        </g>
        <g id="Graphic_67">
          <path d="M 105.88017 166.51219 C 104.43006 167.43498 104.82554 167.56681 107.59393 167.30315 C 109.57135 167.17133 111.54877 166.51219 112.07609 166.1167 C 113.39437 164.6666 108.12124 165.06208 105.88017 166.51219 Z" fill="black"/>
        </g>
        <g id="Graphic_66">
          <path d="M 242.98137 167.30315 C 242.98137 167.69864 244.9588 169.67606 247.3317 171.91714 C 250.2319 174.68553 251.5502 177.05843 251.68202 180.09048 C 251.81385 182.33156 252.34116 185.62726 252.86847 187.2092 C 253.65944 189.71393 253.39578 190.24124 251.02288 190.24124 C 249.57277 190.24124 248.2545 190.76855 248.2545 191.55952 C 248.2545 192.21866 249.44094 192.8778 250.89105 192.8778 C 252.60482 192.8778 253.5276 193.8006 253.5276 195.51436 C 253.5276 196.96447 254.18675 198.15092 254.97772 198.15092 C 255.7687 198.15092 256.16417 196.83264 256.03235 195.11888 C 255.90052 193.53694 256.16417 191.16404 256.8233 189.84576 C 257.35063 188.52747 257.08697 186.8137 256.16417 185.62726 C 255.3732 184.57263 254.8459 182.9907 255.10955 182.0679 C 255.50503 181.1451 256.6915 182.19973 258.00977 184.57263 C 260.25084 189.05479 261.9646 189.97758 263.54655 187.47285 C 265.2603 184.70446 255.3732 166.51219 252.0775 166.51219 C 251.41836 166.51219 252.34116 168.75326 254.18675 171.38982 C 258.93256 178.50854 258.27342 178.64037 251.5502 172.1808 C 246.14524 167.0395 242.98137 165.1939 242.98137 167.30315 Z" fill="black"/>
        </g>
        <g id="Graphic_65">
          <path d="M 279.3659 169.67606 C 279.7614 170.86251 280.81602 171.7853 281.47516 171.7853 C 283.18893 171.7853 282.1343 168.75326 280.1569 168.09412 C 279.2341 167.83047 278.8386 168.35778 279.3659 169.67606 Z" fill="black"/>
        </g>
        <g id="Graphic_64">
          <path d="M 93.3565 171.7853 C 92.96102 172.44445 93.22467 173.1036 93.88381 173.1036 C 94.67478 173.1036 95.33392 172.44445 95.33392 171.7853 C 95.33392 170.99434 95.07027 170.46703 94.80661 170.46703 C 94.41112 170.46703 93.75198 170.99434 93.3565 171.7853 Z" fill="black"/>
        </g>
        <g id="Graphic_63">
          <path d="M 286.48463 171.7853 C 286.48463 172.44445 287.40743 173.1036 288.46205 173.1036 C 289.51668 173.1036 290.43947 172.44445 290.43947 171.7853 C 290.43947 170.99434 289.51668 170.46703 288.46205 170.46703 C 287.40743 170.46703 286.48463 170.99434 286.48463 171.7853 Z" fill="black"/>
        </g>
        <g id="Graphic_62">
          <path d="M 199.4781 172.97176 C 199.4781 173.6309 200.4009 174.81735 201.45552 175.74015 C 203.03746 177.05843 203.43294 177.05843 203.43294 175.34467 C 203.43294 174.29004 202.51015 173.1036 201.45552 172.57628 C 200.4009 172.1808 199.4781 172.31262 199.4781 172.97176 Z" fill="black"/>
        </g>
        <g id="Graphic_61">
          <path d="M 99.42059 175.4765 C 96.6522 176.79478 95.46575 178.50854 94.80661 182.0679 C 94.41112 184.83629 94.67478 187.07737 95.33392 187.34102 C 97.575 188.132 96.78403 190.24124 94.14747 190.24124 C 91.37908 190.24124 88.08338 193.53694 89.79714 194.7234 C 90.45628 195.11888 92.17005 194.59157 93.48833 193.53694 C 94.80661 192.48232 98.4978 191.55952 101.39801 191.55952 C 108.51673 191.55952 112.6034 188.26382 113.65802 181.54059 C 114.31716 177.8494 115.23996 176.26746 117.08555 176.0038 C 118.53566 175.74015 120.24943 174.94918 120.90857 174.42187 C 122.75416 172.57628 103.37543 173.49907 99.42059 175.4765 Z" fill="black"/>
        </g>
        <g id="Graphic_60">
          <path d="M 108.25307 177.32209 C 110.49415 179.56317 110.2305 185.62726 107.85759 187.60468 C 103.2436 191.4277 94.41112 184.57263 98.10231 180.09048 C 99.68425 178.37671 103.77092 176.13564 106.012 175.87198 C 106.40748 175.74015 107.33028 176.3993 108.25307 177.32209 Z" fill="#f3f3f3"/>
        </g>
        <g id="Graphic_59">
          <path d="M 293.3397 174.94918 C 293.47152 176.26746 294.3943 177.19026 295.05346 177.19026 C 297.03088 177.05843 296.6354 174.02639 294.65797 173.36725 C 293.47152 172.97176 292.9442 173.6309 293.3397 174.94918 Z" fill="black"/>
        </g>
        <g id="Graphic_58">
          <path d="M 193.67767 176.26746 C 196.44606 178.24488 197.6325 178.11306 196.1824 175.87198 C 195.78692 175.08101 194.3368 174.42187 193.15035 174.42187 C 191.4366 174.42187 191.4366 174.68553 193.67767 176.26746 Z" fill="black"/>
        </g>
        <g id="Graphic_57">
          <path d="M 311.53197 177.05843 C 311.53197 177.71757 312.1911 178.37671 312.98207 178.37671 C 313.6412 178.37671 313.90487 177.71757 313.5094 177.05843 C 313.1139 176.26746 312.45476 175.74015 312.05928 175.74015 C 311.79562 175.74015 311.53197 176.26746 311.53197 177.05843 Z" fill="black"/>
        </g>
        <g id="Graphic_56">
          <path d="M 141.60558 179.82682 C 139.49633 181.54059 139.23267 182.33156 140.55095 182.33156 C 142.52837 182.33156 146.21956 178.7722 145.29676 177.8494 C 145.0331 177.45392 143.31934 178.37671 141.60558 179.82682 Z" fill="black"/>
        </g>
        <g id="Graphic_55">
          <path d="M 88.87435 180.48596 C 88.87435 181.93607 89.26983 182.33156 89.66531 181.27693 C 90.0608 180.35413 89.92897 179.16768 89.53349 178.7722 C 89.138 178.24488 88.74252 179.03585 88.87435 180.48596 Z" fill="black"/>
        </g>
        <g id="Graphic_54">
          <path d="M 147.40601 181.01327 C 147.01053 181.67241 147.27418 182.33156 147.93332 182.33156 C 148.7243 182.33156 149.38343 181.67241 149.38343 181.01327 C 149.38343 180.2223 149.11978 179.695 148.85612 179.695 C 148.46064 179.695 147.8015 180.2223 147.40601 181.01327 Z" fill="black"/>
        </g>
        <g id="Graphic_53">
          <path d="M 310.87283 186.2864 C 311.92745 188.39565 312.85025 190.5049 312.85025 190.90038 C 312.7184 194.45974 312.98207 195.51436 314.16853 195.51436 C 315.8823 195.51436 315.8823 193.53694 314.0367 187.2092 C 313.24573 184.4408 311.92745 182.33156 310.741 182.33156 C 309.02723 182.33156 309.02723 182.85887 310.87283 186.2864 Z" fill="black"/>
        </g>
        <g id="Graphic_52">
          <path d="M 266.44676 186.94554 C 267.1059 190.63672 269.34698 192.74597 269.34698 189.71393 C 269.34698 186.94554 267.89687 183.64984 266.71042 183.64984 C 266.1831 183.64984 266.05128 185.09994 266.44676 186.94554 Z" fill="black"/>
        </g>
        <g id="Graphic_51">
          <path d="M 139.49633 186.2864 C 139.10084 186.94554 139.23267 187.60468 140.02364 187.60468 C 140.68278 187.60468 141.7374 186.94554 142.13289 186.2864 C 142.52837 185.49543 142.39654 184.96812 141.60558 184.96812 C 140.94644 184.96812 139.89181 185.49543 139.49633 186.2864 Z" fill="black"/>
        </g>
        <g id="Graphic_50">
          <path d="M 152.02 189.05479 C 149.91074 191.4277 147.66967 192.74597 146.8787 192.21866 C 145.9559 191.69135 144.11031 192.8778 142.52837 194.85522 C 140.8146 197.0963 138.96901 198.15092 137.38708 197.75544 C 136.0688 197.35996 133.82772 198.0191 132.37761 199.07372 C 130.79567 200.12835 128.95008 200.52383 128.29094 200.12835 C 126.57718 199.07372 117.7447 202.2376 117.7447 203.81953 C 117.7447 204.47867 118.79932 204.6105 120.1176 204.08319 C 121.30405 203.55588 124.20427 202.89673 126.31352 202.7649 C 128.5546 202.63308 131.45481 202.10577 132.90492 201.57845 C 135.01417 200.78749 134.88234 201.05114 132.24578 203.29222 C 129.87288 205.26964 129.4774 206.0606 131.05933 206.0606 C 132.11395 206.0606 135.54148 203.95136 138.4417 201.44663 C 141.47375 198.9419 144.37397 196.83264 145.0331 196.83264 C 145.69225 196.83264 148.85612 194.19608 152.02 190.90038 C 155.18387 187.60468 157.42494 184.96812 156.89763 184.96812 C 156.2385 184.96812 154.12924 186.8137 152.02 189.05479 Z" fill="black"/>
        </g>
        <g id="Graphic_49">
          <path d="M 259.32805 193.14146 C 259.72353 195.38253 260.11902 198.5464 260.11902 200.26017 C 260.11902 201.97394 260.77816 203.42405 261.4373 203.42405 C 262.22827 203.42405 262.75558 202.50125 262.75558 201.3148 C 262.75558 200.12835 263.41472 199.73286 264.3375 200.26017 C 265.39214 200.91931 265.52397 199.99652 264.99666 196.83264 C 264.46934 194.45974 264.07386 192.08683 264.07386 191.55952 C 264.07386 191.0322 262.75558 190.24124 261.30547 189.84576 C 258.80074 189.18662 258.53708 189.45027 259.32805 193.14146 Z" fill="black"/>
        </g>
        <g id="Graphic_48">
          <path d="M 263.2829 196.30533 C 263.67837 197.35996 263.54655 197.88727 262.75558 197.49178 C 261.9646 197.0963 261.4373 196.1735 261.4373 195.38253 C 261.4373 193.53694 262.3601 193.93243 263.2829 196.30533 Z" fill="#f3f3f3"/>
        </g>
        <g id="Graphic_47">
          <path d="M 270.66526 193.66877 C 270.66526 195.51436 271.19257 196.70082 271.8517 196.30533 C 272.51086 195.90985 272.7745 194.3279 272.37903 192.8778 C 271.45623 189.18662 270.66526 189.5821 270.66526 193.66877 Z" fill="black"/>
        </g>
        <g id="Graphic_46">
          <path d="M 157.29312 192.61415 C 157.29312 194.19608 159.79785 196.04168 160.72065 195.11888 C 160.9843 194.85522 160.457 193.8006 159.27054 192.8778 C 158.08409 191.82318 157.29312 191.82318 157.29312 192.61415 Z" fill="black"/>
        </g>
        <g id="Graphic_45">
          <path d="M 165.86194 194.19608 C 167.18022 195.6462 168.4985 196.56899 168.89399 196.1735 C 169.81678 195.38253 166.52108 191.55952 164.80732 191.55952 C 164.14818 191.55952 164.54366 192.74597 165.86194 194.19608 Z" fill="black"/>
        </g>
        <g id="Graphic_44">
          <path d="M 178.3856 193.27329 C 178.3856 194.3279 179.3084 195.90985 180.36303 196.83264 C 181.94497 198.15092 182.34045 198.15092 182.34045 196.43716 C 182.34045 195.38253 181.41765 193.8006 180.36303 192.8778 C 178.7811 191.55952 178.3856 191.55952 178.3856 193.27329 Z" fill="black"/>
        </g>
        <g id="Graphic_43">
          <path d="M 101.26618 195.6462 C 98.36597 196.04168 97.31134 196.56899 99.02511 196.70082 C 100.73887 196.70082 101.66167 197.35996 101.26618 198.15092 C 100.34339 199.73286 104.43006 199.8647 106.80296 198.41458 C 109.83501 196.43716 106.53931 194.85522 101.26618 195.6462 Z" fill="black"/>
        </g>
        <g id="Graphic_42">
          <path d="M 171.7942 195.51436 C 171.7942 196.1735 172.45335 196.83264 173.11249 196.83264 C 173.90345 196.83264 174.43077 196.1735 174.43077 195.51436 C 174.43077 194.7234 173.90345 194.19608 173.11249 194.19608 C 172.45335 194.19608 171.7942 194.7234 171.7942 195.51436 Z" fill="black"/>
        </g>
        <g id="Graphic_41">
          <path d="M 201.45552 198.81006 C 206.72865 203.29222 208.70607 204.34684 208.70607 202.36942 C 208.70607 201.18297 198.81896 194.19608 197.23702 194.19608 C 196.7097 194.3279 198.5553 196.30533 201.45552 198.81006 Z" fill="black"/>
        </g>
        <g id="Graphic_40">
          <path d="M 249.57277 200.392 C 249.57277 201.44663 250.75922 202.63308 252.20933 203.02856 C 253.9231 203.55588 254.8459 204.87416 254.8459 207.11523 C 254.8459 211.07008 255.50503 210.6746 256.6915 205.79695 C 257.35063 202.89673 256.8233 201.97394 253.5276 200.392 C 249.96825 198.5464 249.57277 198.5464 249.57277 200.392 Z" fill="black"/>
        </g>
        <g id="Graphic_39">
          <path d="M 217.2749 200.78749 C 214.90199 201.8421 215.03381 201.97394 218.32952 201.97394 C 220.30694 202.10577 221.88887 201.44663 221.88887 200.78749 C 221.88887 199.20555 220.83425 199.20555 217.2749 200.78749 Z" fill="black"/>
        </g>
        <g id="Graphic_38">
          <path d="M 217.67038 205.66512 C 218.59317 206.0606 219.77962 205.92878 220.1751 205.5333 C 220.70242 205.13781 219.91145 204.74233 218.46134 204.87416 C 217.01124 204.87416 216.61575 205.26964 217.67038 205.66512 Z" fill="black"/>
        </g>
        <g id="Graphic_37">
          <path d="M 313.77304 210.01545 C 314.16853 211.46556 314.69584 212.652 314.9595 212.652 C 315.22315 212.652 315.4868 211.46556 315.4868 210.01545 C 315.4868 208.56534 314.9595 207.3789 314.30036 207.3789 C 313.6412 207.3789 313.37756 208.56534 313.77304 210.01545 Z" fill="black"/>
        </g>
        <g id="Graphic_36">
          <path d="M 84.52402 214.8931 C 85.44682 215.28857 86.63327 215.15675 87.02875 214.76126 C 87.55606 214.36578 86.7651 213.9703 85.31499 214.10212 C 83.86488 214.10212 83.46939 214.4976 84.52402 214.8931 Z" fill="black"/>
        </g>
        <g id="Graphic_35">
          <path d="M 306.39067 223.06643 C 306.25884 226.2303 306.65433 227.28493 307.57712 226.36213 C 308.49992 225.43934 308.49992 223.8574 307.70895 221.74815 C 306.5225 218.7161 306.39067 218.84793 306.39067 223.06643 Z" fill="black"/>
        </g>
        <g id="Graphic_34">
          <path d="M 80.83283 223.46191 C 80.83283 223.98923 82.67843 224.51654 84.78768 224.51654 C 87.02875 224.51654 88.74252 224.25288 88.74252 223.98923 C 88.74252 223.72557 87.02875 223.19826 84.78768 222.9346 C 82.67843 222.53912 80.83283 222.80277 80.83283 223.46191 Z" fill="black"/>
        </g>
        <g id="Graphic_33">
          <path d="M 168.4985 224.3847 C 168.10302 225.17568 168.89399 226.36213 170.3441 227.02127 C 173.50797 228.86687 174.43077 228.86687 174.43077 227.1531 C 174.43077 225.3075 169.4213 222.9346 168.4985 224.3847 Z" fill="black"/>
        </g>
        <g id="Graphic_32">
          <path d="M 188.93186 227.6804 C 188.93186 228.86687 189.591 229.78966 190.25014 229.78966 C 191.0411 229.78966 191.56842 229.26235 191.56842 228.6032 C 191.56842 227.81224 191.0411 226.88944 190.25014 226.49396 C 189.591 226.09848 188.93186 226.6258 188.93186 227.6804 Z" fill="black"/>
        </g>
        <g id="Graphic_31">
          <path d="M 198.15982 226.36213 C 198.15982 226.6258 199.08262 228.86687 200.13724 231.23977 C 201.98283 235.72193 202.7738 234.27182 201.3237 228.73504 C 200.66455 226.36213 198.15982 224.3847 198.15982 226.36213 Z" fill="black"/>
        </g>
        <g id="Graphic_30">
          <path d="M 220.83425 228.73504 C 221.22973 229.65783 222.54801 230.71246 223.99812 230.97612 C 226.10737 231.3716 226.2392 231.10794 224.65726 229.26235 C 222.54801 226.75762 220.1751 226.49396 220.83425 228.73504 Z" fill="black"/>
        </g>
        <g id="Graphic_29">
          <path d="M 182.34045 230.18515 C 182.34045 231.23977 183.26325 232.42622 184.31787 232.95354 C 185.3725 233.34902 186.2953 233.2172 186.2953 232.55805 C 186.2953 231.8989 185.3725 230.71246 184.31787 229.78966 C 182.73594 228.47138 182.34045 228.47138 182.34045 230.18515 Z" fill="black"/>
        </g>
        <g id="Graphic_28">
          <path d="M 174.43077 230.97612 C 174.43077 231.63526 175.88088 233.08536 177.72647 234.27182 C 179.57206 235.45827 181.02217 235.85375 181.02217 235.1946 C 181.02217 234.53547 179.57206 233.08536 177.72647 231.8989 C 175.88088 230.71246 174.43077 230.31697 174.43077 230.97612 Z" fill="black"/>
        </g>
        <g id="Graphic_27">
          <path d="M 228.6121 234.53547 C 229.40307 235.5901 230.985 236.38107 232.03964 236.38107 C 234.6762 236.38107 233.09426 234.27182 229.79856 233.34902 C 227.55748 232.8217 227.29383 232.95354 228.6121 234.53547 Z" fill="black"/>
        </g>
        <g id="Graphic_26">
          <path d="M 105.22103 181.1451 C 104.69371 181.80424 103.50726 182.19973 102.45264 181.80424 C 99.9479 180.88145 98.76145 183.38618 100.60704 185.62726 C 101.7935 187.07737 102.84812 187.07737 105.35285 186.02274 C 108.51673 184.57263 109.57135 181.80424 107.33028 180.35413 C 106.67114 179.95865 105.61651 180.35413 105.22103 181.1451 Z" fill="black"/>
        </g>
      </g>
    </g>
  </g>
</svg>